# 3ds Max Wavefront OBJ Exporter v0.97b - (c)2007 guruware
# File Created: 03.02.2020 10:53:30

mtllib bridge_basemodel.mtl

#
# object Box001
#

v  0.0002 -51.2407 -1101.1528
v  0.0002 48.7593 -1101.1528
v  0.0000 269.9890 -542.8840
v  0.0001 169.9890 -542.8840
v  -0.0000 439.2512 15.3847
v  -0.0000 339.2512 15.3847
v  -0.0001 521.3655 573.6533
v  -0.0001 421.3655 573.6533
v  -0.0002 556.3116 1131.9220
v  -0.0002 456.3116 1131.9220
v  -272.0681 -51.2407 -1101.1528
v  -272.0681 169.9890 -542.8842
v  -272.0681 269.9890 -542.8842
v  -272.0681 48.7593 -1101.1528
v  -272.0682 339.2512 15.3848
v  -272.0683 439.2512 15.3848
v  -272.0684 421.3656 573.6532
v  -272.0684 521.3655 573.6532
v  -272.0685 456.3117 1131.9220
v  -272.0685 556.3116 1131.9220
# 20 vertices

vn 0.5388 -0.8311 -0.1376
vn 0.6723 0.1205 -0.7305
vn 0.6971 0.2606 -0.6680
vn 0.7174 -0.2532 0.6491
vn 0.6727 0.4047 -0.6195
vn 0.7452 -0.3647 0.5583
vn 0.6655 0.6016 -0.4417
vn 0.7540 -0.5295 0.3888
vn 0.5578 0.6999 0.4460
vn 0.6038 -0.4284 0.6722
vn -0.5388 -0.8311 -0.1376
vn -0.7175 -0.2532 0.6489
vn -0.6971 0.2606 -0.6679
vn -0.6723 0.1205 -0.7305
vn -0.7451 -0.3647 0.5584
vn -0.6726 0.4047 -0.6195
vn -0.7540 -0.5295 0.3888
vn -0.6655 0.6016 -0.4417
vn -0.6038 -0.4284 0.6722
vn -0.5578 0.6999 0.4460
# 20 vertex normals

vt 1.0000 0.0000 0.0000
vt 1.0000 1.0000 0.0000
vt 0.7500 1.0000 0.0000
vt 0.7500 0.0000 0.0000
vt 0.5000 1.0000 0.0000
vt 0.5000 0.0000 0.0000
vt 0.2500 1.0000 0.0000
vt 0.2500 0.0000 0.0000
vt 0.0000 1.0000 0.0000
vt 0.0000 0.0000 0.0000
# 10 texture coords

o Box001
g Box001
usemtl wire_154215229
s 2
f 1/1/1 2/2/2 3/3/3 4/4/4 
f 4/4/4 3/3/3 5/5/5 6/6/6 
f 6/6/6 5/5/5 7/7/7 8/8/8 
f 8/8/8 7/7/7 9/9/9 10/10/10 
s 4
f 11/10/11 12/8/12 13/7/13 14/9/14 
f 12/8/12 15/6/15 16/5/16 13/7/13 
f 15/6/15 17/4/17 18/3/18 16/5/16 
f 17/4/17 19/1/19 20/2/20 18/3/18 
s 8
f 1/10/1 4/8/4 12/7/12 11/9/11 
f 4/8/4 6/6/6 15/5/15 12/7/12 
f 6/6/6 8/4/8 17/3/17 15/5/15 
f 8/4/8 10/1/10 19/2/19 17/3/17 
s 16
f 10/10/10 9/1/9 20/2/20 19/9/19 
s 32
f 9/10/9 7/8/7 18/7/18 20/9/20 
f 7/8/7 5/6/5 16/5/16 18/7/18 
f 5/6/5 3/4/3 13/3/13 16/5/16 
f 3/4/3 2/1/2 14/2/14 13/3/13 
s 64
f 2/10/2 1/1/1 11/2/11 14/9/14 
# 18 polygons

